<svg xmlns="http://www.w3.org/2000/svg" viewBox="0 0 48 48"><defs><style>.a,.b,.c{fill:none;}.b,.c{stroke:#000;stroke-linecap:round;stroke-width:4px;}.b{stroke-miterlimit:10;}.c{stroke-linejoin:round;}</style></defs><title>507_s_f</title><rect class="a" width="48" height="48"/><path class="b" d="M8.94,8C8,8.17,8,9.42,8,10.12,8.94,27,21.91,39,38,39.94c.65,0,2-.24,2-.94"/><path class="b" d="M17.29,20.78a26.08,26.08,0,0,0,9.93,9.9"/><polyline class="c" points="39.94 29 30.95 26.98 27.22 30.68"/><polyline class="c" points="18.94 8 20.96 16.99 17.3 20.78"/><line class="b" x1="8.94" y1="8" x2="18.94" y2="8"/><line class="b" x1="39.94" y1="29" x2="39.94" y2="39"/><polyline class="c" points="29.94 9 29.94 18 38.94 18"/><line class="c" x1="39.94" y1="8" x2="35.94" y2="12"/></svg>